<svg xmlns="http://www.w3.org/2000/svg" viewBox="0 0 240 240" role="img" aria-labelledby="t"><title id="t">Sathivo male avatar 3</title><rect width="240" height="240" rx="48" fill="#E8F6EF"/><circle cx="120" cy="107" r="61" fill="#D8A079"/><path d="M60 91c10-43 31-64 62-64 33 0 55 22 60 61-16-11-34-17-53-18-28-2-49 5-69 21z" fill="#51362B"/><path d="M70 102c0 50 21 82 50 82 31 0 52-34 52-82-14 11-31 16-50 16-20 0-37-5-52-16z" fill="#D8A079"/><path d="M92 117h15M134 117h15" stroke="#3B2A25" stroke-width="5" stroke-linecap="round"/><path d="M108 146c8 7 17 7 25 0" fill="none" stroke="#875447" stroke-width="5" stroke-linecap="round"/><path d="M48 240c7-40 34-65 72-65 39 0 67 25 73 65" fill="#6A4E86"/><path d="M88 181c9 13 19 19 32 19s24-6 33-19" fill="#F7F2FF"/></svg>