<svg xmlns="http://www.w3.org/2000/svg" viewBox="0 0 240 240" role="img" aria-labelledby="t"><title id="t">Sathivo female avatar 1</title><rect width="240" height="240" rx="48" fill="#FFE8F0"/><path d="M55 112c0-55 27-87 65-87s66 31 66 87v71H55z" fill="#442E3A"/><circle cx="120" cy="107" r="59" fill="#E5AD86"/><path d="M66 93c10-42 30-62 59-62 31 0 50 21 58 62-20-13-38-20-58-20-22 0-40 6-59 20z" fill="#442E3A"/><circle cx="98" cy="119" r="4.5" fill="#3B2931"/><circle cx="142" cy="119" r="4.5" fill="#3B2931"/><path d="M106 145c10 9 20 9 29 0" fill="none" stroke="#A24D6E" stroke-width="5" stroke-linecap="round"/><path d="M47 240c6-41 35-65 73-65 39 0 68 24 73 65" fill="#A53F68"/><path d="M86 181c10 13 21 20 34 20s25-7 35-20" fill="#FFF5F8"/></svg>