<svg xmlns="http://www.w3.org/2000/svg" viewBox="0 0 240 240" role="img" aria-labelledby="t"><title id="t">Sathivo female avatar 2</title><rect width="240" height="240" rx="48" fill="#EEE8FF"/><path d="M52 114c2-58 28-89 68-89 41 0 67 33 68 89l-16 72H68z" fill="#1F2028"/><circle cx="120" cy="108" r="59" fill="#9D6549"/><path d="M66 91c8-40 28-60 58-60 30 0 51 21 60 61-18-9-37-15-59-15-22 0-42 5-59 14z" fill="#1F2028"/><circle cx="98" cy="120" r="4.5" fill="#201A1A"/><circle cx="143" cy="120" r="4.5" fill="#201A1A"/><path d="M106 146c10 8 20 8 29 0" fill="none" stroke="#6E3434" stroke-width="5" stroke-linecap="round"/><path d="M47 240c7-41 35-65 73-65 39 0 68 24 73 65" fill="#3E6B73"/><path d="M87 181c9 13 20 20 33 20s25-7 34-20" fill="#F2FBFB"/></svg>